<svg width="209" height="73" viewBox="0 0 209 73" fill="none" xmlns="http://www.w3.org/2000/svg">
<g filter="url(#filter0_d_327_2583)">
<rect x="19.9102" y="13.6889" width="46.6667" height="32.3556" rx="2.48889" fill="#00579F"/>
<path d="M39.875 35.3709H37.2363L38.8867 25.0527H41.5252L39.875 35.3709Z" fill="white"/>
<path d="M49.4406 25.3051C48.9201 25.0963 48.0946 24.8658 47.0739 24.8658C44.4682 24.8658 42.6333 26.2707 42.622 28.2794C42.6004 29.7614 43.9358 30.5845 44.9345 31.0787C45.9554 31.5836 46.3024 31.9132 46.3024 32.3633C46.292 33.0545 45.4775 33.3731 44.7178 33.3731C43.6644 33.3731 43.0999 33.2089 42.2421 32.8243L41.8946 32.6594L41.5254 34.9756C42.1443 35.2607 43.2844 35.5137 44.4682 35.5248C47.2368 35.5248 49.0393 34.1416 49.0607 32.001C49.0712 30.8264 48.3661 29.9264 46.8458 29.1909C45.9229 28.7188 45.3577 28.4005 45.3577 27.9174C45.3686 27.4783 45.8358 27.0285 46.8776 27.0285C47.7354 27.0065 48.3656 27.215 48.8431 27.4236L49.0817 27.5332L49.4406 25.3051Z" fill="white"/>
<path d="M52.9476 31.7155C53.1649 31.1228 54.0011 28.8286 54.0011 28.8286C53.9901 28.8506 54.218 28.2249 54.3483 27.8407L54.5327 28.7298C54.5327 28.7298 55.0324 31.1996 55.1409 31.7155C54.7285 31.7155 53.4688 31.7155 52.9476 31.7155ZM56.2047 25.0527H54.1637C53.5343 25.0527 53.0562 25.2392 52.7846 25.9088L48.8652 35.3707H51.6339C51.6339 35.3707 52.0897 34.0972 52.1877 33.823C52.4914 33.823 55.1847 33.823 55.5755 33.823C55.6512 34.1852 55.8903 35.3707 55.8903 35.3707H58.3334L56.2047 25.0527Z" fill="white"/>
<path d="M35.0321 25.0527L32.4481 32.0887L32.1657 30.6617C31.6879 29.0152 30.1896 27.2262 28.5176 26.3367L30.8845 35.3599H33.6748L37.8223 25.0527H35.0321Z" fill="white"/>
<path d="M30.0485 25.0527H25.8032L25.7598 25.2612C29.0714 26.1174 31.2646 28.1814 32.1657 30.6622L31.2428 25.92C31.0909 25.261 30.6239 25.0744 30.0485 25.0527Z" fill="#FAA61A"/>
<rect x="81.2812" y="13.9022" width="46.0444" height="31.5733" rx="2.48889" fill="black"/>
<path d="M110.455 20.48C115.413 20.48 119.432 24.5457 119.432 29.561C119.432 34.5765 115.413 38.642 110.455 38.6421C108.232 38.6421 106.2 37.8231 104.632 36.4692C103.064 37.8229 101.031 38.6421 98.8086 38.6421C93.8509 38.6418 89.832 34.5763 89.832 29.561C89.8321 24.5459 93.851 20.4802 98.8086 20.48C101.031 20.48 103.064 21.2985 104.632 22.6519C106.2 21.2984 108.232 20.48 110.455 20.48Z" fill="#ED0006"/>
<path d="M110.456 20.48C115.414 20.48 119.433 24.5457 119.433 29.561C119.433 34.5765 115.414 38.642 110.456 38.6421C108.233 38.6421 106.201 37.8231 104.633 36.4692C106.562 34.8036 107.787 32.3278 107.787 29.561C107.787 26.794 106.562 24.3175 104.633 22.6519C106.201 21.2984 108.233 20.48 110.456 20.48Z" fill="#F9A000"/>
<path d="M104.631 22.6519C106.56 24.3175 107.785 26.794 107.785 29.5611C107.785 32.3279 106.56 34.8036 104.631 36.4693C102.702 34.8036 101.477 32.3278 101.477 29.5611C101.477 26.7941 102.702 24.3175 104.631 22.6519Z" fill="#FF5E00"/>
<mask id="mask0_327_2583" style="mask-type:alpha" maskUnits="userSpaceOnUse" x="142" y="13" width="47" height="34">
<rect x="142.029" y="13.6889" width="46.6667" height="32.3556" fill="#016FD0"/>
</mask>
<g mask="url(#mask0_327_2583)">
<rect x="142.029" y="13.6889" width="46.6667" height="32.3556" rx="2.48889" fill="#016FD0"/>
<path d="M151.105 38.4418V31.0185H158.879L159.713 32.1178L160.575 31.0185H188.79V37.9298C188.79 37.9298 188.052 38.4344 187.199 38.4418H171.575L170.635 37.2716V38.4418H167.554V36.4443C167.554 36.4443 167.133 36.7231 166.223 36.7231H165.174V38.4418H160.509L159.676 37.3189L158.83 38.4418H151.105Z" fill="white"/>
<path d="M142.029 25.4237L143.782 21.2916H146.814L147.809 23.6063V21.2916H151.577L152.169 22.9646L152.743 21.2916H169.66V22.1327C169.66 22.1327 170.549 21.2916 172.011 21.2916L177.5 21.311L178.477 23.5954V21.2916H181.631L182.499 22.6038V21.2916H185.682V28.7148H182.499L181.667 27.3984V28.7148H177.034L176.568 27.5447H175.322L174.864 28.7148H171.722C170.464 28.7148 169.66 27.891 169.66 27.891V28.7148H164.922L163.982 27.5447V28.7148H146.365L145.899 27.5447H144.657L144.195 28.7148H142.029V25.4237Z" fill="white"/>
<path d="M144.401 22.2065L142.037 27.7648H143.576L144.013 26.6518H146.549L146.983 27.7648H148.556L146.194 22.2065H144.401ZM145.276 23.5001L146.049 25.4451H144.501L145.276 23.5001V23.5001Z" fill="#016FD0"/>
<path d="M148.719 27.7635V22.2052L150.906 22.2134L152.178 25.7971L153.42 22.2052H155.59V27.7635H154.216V23.6679L152.759 27.7635H151.554L150.093 23.6679V27.7635H148.719Z" fill="#016FD0"/>
<path d="M156.531 27.7636V22.2052H161.016V23.4485H157.92V24.3993H160.944V25.5695H157.92V26.5568H161.016V27.7636H156.531Z" fill="#016FD0"/>
<path d="M161.811 22.2065V27.7649H163.185V25.7902H163.764L165.411 27.7649H167.091L165.283 25.7171C166.025 25.6537 166.79 25.0097 166.79 24.0098C166.79 22.8401 165.882 22.2065 164.869 22.2065H161.811V22.2065ZM163.185 23.4498H164.756C165.133 23.4498 165.407 23.7479 165.407 24.0349C165.407 24.4042 165.052 24.62 164.776 24.62H163.185V23.4498V23.4498Z" fill="#016FD0"/>
<path d="M168.757 27.7636H167.354V22.2052H168.757V27.7636Z" fill="#016FD0"/>
<path d="M172.084 27.7636H171.781C170.316 27.7636 169.426 26.5961 169.426 25.0072C169.426 23.3791 170.306 22.2052 172.156 22.2052H173.675V23.5217H172.101C171.35 23.5217 170.818 24.1145 170.818 25.0209C170.818 26.0974 171.426 26.5495 172.301 26.5495H172.663L172.084 27.7636Z" fill="#016FD0"/>
<path d="M175.075 22.2065L172.711 27.7648H174.25L174.687 26.6518H177.223L177.657 27.7648H179.23L176.868 22.2065H175.075ZM175.95 23.5001L176.723 25.4451H175.175L175.95 23.5001Z" fill="#016FD0"/>
<path d="M179.389 27.7636V22.2052H181.136L183.367 25.6975V22.2052H184.741V27.7636H183.051L180.763 24.1799V27.7636H179.389Z" fill="#016FD0"/>
<path d="M152.047 37.4912V31.9328H156.531V33.1761H153.436V34.1269H156.459V35.2971H153.436V36.2844H156.531V37.4912H152.047Z" fill="#016FD0"/>
<path d="M174.02 37.4912V31.9328H178.504V33.1761H175.408V34.1269H178.417V35.2971H175.408V36.2844H178.504V37.4912H174.02Z" fill="#016FD0"/>
<path d="M156.706 37.4911L158.89 34.7462L156.654 31.9328H158.386L159.717 33.6721L161.053 31.9328H162.717L160.51 34.712L162.698 37.4911H160.967L159.674 35.7793L158.413 37.4911H156.706Z" fill="#016FD0"/>
<path d="M162.861 31.9334V37.4918H164.272V35.7365H165.718C166.943 35.7365 167.87 35.0799 167.87 33.803C167.87 32.7452 167.143 31.9334 165.897 31.9334H162.861V31.9334ZM164.272 33.1905H165.795C166.191 33.1905 166.473 33.4355 166.473 33.8304C166.473 34.2014 166.192 34.4704 165.791 34.4704H164.272V33.1905Z" fill="#016FD0"/>
<path d="M168.467 31.9328V37.4912H169.841V35.5165H170.42L172.068 37.4912H173.747L171.939 35.4433C172.681 35.38 173.446 34.736 173.446 33.7361C173.446 32.5664 172.538 31.9328 171.525 31.9328H168.467V31.9328ZM169.841 33.1761H171.412C171.789 33.1761 172.063 33.4742 172.063 33.7612C172.063 34.1305 171.708 34.3463 171.432 34.3463H169.841V33.1761V33.1761Z" fill="#016FD0"/>
<path d="M179.143 37.4912V36.2844H181.894C182.301 36.2844 182.477 36.062 182.477 35.8182C182.477 35.5845 182.301 35.3483 181.894 35.3483H180.651C179.57 35.3483 178.969 34.6827 178.969 33.6835C178.969 32.7923 179.52 31.9328 181.125 31.9328H183.801L183.223 33.1834H180.908C180.466 33.1834 180.33 33.4182 180.33 33.6424C180.33 33.8728 180.498 34.1269 180.836 34.1269H182.138C183.342 34.1269 183.865 34.8176 183.865 35.7222C183.865 36.6947 183.282 37.4912 182.072 37.4912H179.143Z" fill="#016FD0"/>
<path d="M184.186 37.4912V36.2844H186.937C187.344 36.2844 187.52 36.062 187.52 35.8182C187.52 35.5845 187.344 35.3483 186.937 35.3483H185.694C184.613 35.3483 184.012 34.6827 184.012 33.6835C184.012 32.7923 184.563 31.9328 186.168 31.9328H188.79L188.266 33.1834H185.951C185.509 33.1834 185.372 33.4182 185.372 33.6424C185.372 33.8728 185.541 34.1269 185.879 34.1269H187.181C188.385 34.1269 188.908 34.8176 188.908 35.7222C188.908 36.6947 188.325 37.4912 187.115 37.4912H184.186Z" fill="#016FD0"/>
</g>
</g>
<defs>
<filter id="filter0_d_327_2583" x="-0.000955582" y="1.43051e-05" width="208.607" height="72.1778" filterUnits="userSpaceOnUse" color-interpolation-filters="sRGB">
<feFlood flood-opacity="0" result="BackgroundImageFix"/>
<feColorMatrix in="SourceAlpha" type="matrix" values="0 0 0 0 0 0 0 0 0 0 0 0 0 0 0 0 0 0 127 0" result="hardAlpha"/>
<feOffset dy="6.22222"/>
<feGaussianBlur stdDeviation="9.95556"/>
<feComposite in2="hardAlpha" operator="out"/>
<feColorMatrix type="matrix" values="0 0 0 0 0.054902 0 0 0 0 0.278431 0 0 0 0 0.301961 0 0 0 0.25 0"/>
<feBlend mode="normal" in2="BackgroundImageFix" result="effect1_dropShadow_327_2583"/>
<feBlend mode="normal" in="SourceGraphic" in2="effect1_dropShadow_327_2583" result="shape"/>
</filter>
</defs>
</svg>
