<svg width="233" height="64" viewBox="0 0 233 64" fill="none" xmlns="http://www.w3.org/2000/svg">
<g clip-path="url(#clip0_66_1446)">
<path d="M73.2895 28.2099H27.6648V39.1244H45.6487V46.8006C42.1262 49.4033 37.8129 50.8186 33.2481 50.8186C22.1774 50.8186 13.1794 42.3868 13.1794 32.012C13.1794 21.6372 22.1893 13.2054 33.2481 13.2054H39.0949V0H33.2481C14.9167 0 0 14.3568 0 32C0 49.6432 14.9167 64 33.2481 64C42.1621 64 50.5251 60.6537 56.8152 54.5847L58.8281 52.6417V39.1244H73.2895V28.2099Z" fill="white"/>
<path d="M76.8477 0H58.72H45.6484V12.8336V23.2684H58.72V12.8336H76.8477V0Z" fill="white"/>
<path d="M136.395 25.5953H132.633V32.0841H125.744V7.67627H136.886C143.536 7.67627 147.717 11.1305 147.717 16.7078C147.717 20.294 145.98 22.9446 142.949 24.4079L148.209 32.0721H140.828L136.407 25.5833L136.395 25.5953ZM136.467 13.1215H132.633V20.27H136.467C139.318 20.27 140.744 18.9506 140.744 16.7197C140.744 14.4889 139.318 13.1335 136.467 13.1335V13.1215Z" fill="white"/>
<path d="M152.174 21.2055V7.67627H159.064V20.9896C159.064 25.1755 160.801 26.8427 163.688 26.8427C166.576 26.8427 168.289 25.1755 168.289 20.9896V7.67627H175.083V21.2055C175.083 28.4859 170.829 32.5638 163.628 32.5638C156.428 32.5638 152.174 28.4859 152.174 21.2055Z" fill="white"/>
<path d="M202.591 16.7078C202.591 22.249 198.41 25.7033 191.76 25.7033H187.507V32.0841H180.618V7.67627H191.76C198.41 7.67627 202.591 11.1305 202.591 16.7078ZM195.63 16.7078C195.63 14.4409 194.204 13.1215 191.353 13.1215H187.519V20.27H191.353C194.204 20.27 195.63 18.9506 195.63 16.7197V16.7078Z" fill="white"/>
<path d="M205.91 19.8742C205.91 12.5579 211.649 7.18457 219.449 7.18457C227.249 7.18457 233 12.5579 233 19.8742C233 27.1906 227.261 32.5639 219.449 32.5639C211.637 32.5639 205.91 27.1906 205.91 19.8742ZM226.039 19.8742C226.039 15.6523 223.151 12.9057 219.461 12.9057C215.771 12.9057 212.883 15.6643 212.883 19.8742C212.883 24.0841 215.771 26.8427 219.461 26.8427C223.151 26.8427 226.039 24.0841 226.039 19.8742Z" fill="white"/>
<path d="M135.233 59.4542H125.348L123.515 63.9999H116.77L127.085 40.5996H133.591L143.943 63.9999H137.066L135.233 59.4542ZM133.292 54.5726L130.284 47.0884L127.277 54.5726H133.292Z" fill="white"/>
<path d="M145.237 40.5999H156.296C164.036 40.5999 169.356 45.1096 169.356 52.294C169.356 59.4784 164.048 63.9882 156.296 63.9882H145.237V40.5879V40.5999ZM156.02 58.7108C159.998 58.7108 162.67 56.336 162.67 52.294C162.67 48.2521 159.998 45.8772 156.02 45.8772H151.851V58.7108H156.02Z" fill="white"/>
<path d="M173.657 40.5996H180.27V63.9999H173.657V40.5996Z" fill="white"/>
<path d="M200.039 59.4542H190.155L188.322 63.9999H181.576L191.892 40.5996H198.398L208.75 63.9999H201.872L200.039 59.4542ZM198.098 54.5726L195.091 47.0884L192.084 54.5726H198.098Z" fill="white"/>
<path d="M221.678 57.787H218.071V63.9999H211.458V40.5996H222.145C228.519 40.5996 232.533 43.91 232.533 49.2593C232.533 52.7016 230.867 55.2443 227.956 56.6476L233 63.9999H225.919L221.678 57.787ZM221.749 45.817H218.071V52.6656H221.749C224.493 52.6656 225.859 51.3942 225.859 49.2593C225.859 47.1243 224.493 45.817 221.749 45.817Z" fill="white"/>
<path d="M110.276 23.5803H114.912V26.0511C113.69 26.6028 112.48 26.8547 111.186 26.8547C107.077 26.8547 104.297 24.0001 104.297 19.8862C104.297 15.7722 107.077 12.9176 111.258 12.9176C113.595 12.9176 115.512 13.7932 117.177 15.6403L121.562 11.6703C119.154 8.77971 115.464 7.2085 110.911 7.2085C103.003 7.2085 97.3359 12.4739 97.3359 19.8982C97.3359 27.3224 103.015 32.5878 110.779 32.5878C114.325 32.5878 118.195 31.5083 121.011 29.4814V18.267H110.276V23.6043V23.5803Z" fill="white"/>
<path d="M109.281 50.9027H99.6362V64.0001H106.25V55.9761H116.566V50.8667H109.281V50.9027Z" fill="white"/>
<path d="M99.6362 40.5996V45.721H106.25H109.281H117.968V40.5996H99.6362Z" fill="white"/>
</g>
<defs>
<clipPath id="clip0_66_1446">
<rect width="233" height="64" fill="white"/>
</clipPath>
</defs>
</svg>
