<svg width="146" height="40" viewBox="0 0 146 40" fill="none" xmlns="http://www.w3.org/2000/svg">
<g clip-path="url(#clip0_66_1172)">
<path d="M45.9239 17.6312H17.335V24.4528H28.6039V29.2504C26.3967 30.8771 23.6939 31.7616 20.8335 31.7616C13.8965 31.7616 8.25834 26.4918 8.25834 20.0075C8.25834 13.5232 13.904 8.25337 20.8335 8.25337H24.4972V0H20.8335C9.34694 0 0 8.97301 0 20C0 31.027 9.34694 40 20.8335 40C26.4192 40 31.6595 37.9085 35.601 34.1154L36.8622 32.9011V24.4528H45.9239V17.6312Z" fill="#022954"/>
<path d="M48.1538 0H36.7948H28.604V8.02099V14.5427H36.7948V8.02099H48.1538V0Z" fill="#D69F04"/>
<path d="M85.4662 15.997H83.1089V20.0525H78.792V4.7976H85.774C89.9408 4.7976 92.5609 6.95652 92.5609 10.4423C92.5609 12.6837 91.4723 14.3403 89.5729 15.2549L92.8687 20.045H88.244L85.4737 15.9895L85.4662 15.997ZM85.5113 8.2009H83.1089V12.6687H85.5113C87.2981 12.6687 88.1915 11.8441 88.1915 10.4498C88.1915 9.05547 87.2981 8.2084 85.5113 8.2084V8.2009Z" fill="#022954"/>
<path d="M95.354 13.2534V4.7976H99.6709V13.1184C99.6709 15.7346 100.759 16.7766 102.569 16.7766C104.378 16.7766 105.452 15.7346 105.452 13.1184V4.7976H109.709V13.2534C109.709 17.8036 107.043 20.3523 102.531 20.3523C98.0192 20.3523 95.354 17.8036 95.354 13.2534Z" fill="#022954"/>
<path d="M126.946 10.4423C126.946 13.9055 124.326 16.0645 120.159 16.0645H117.494V20.0525H113.177V4.7976H120.159C124.326 4.7976 126.946 6.95652 126.946 10.4423ZM122.584 10.4423C122.584 9.02549 121.69 8.2009 119.904 8.2009H117.501V12.6687H119.904C121.69 12.6687 122.584 11.8441 122.584 10.4498V10.4423Z" fill="#022954"/>
<path d="M129.025 12.4213C129.025 7.84857 132.622 4.49025 137.509 4.49025C142.396 4.49025 146 7.84857 146 12.4213C146 16.994 142.404 20.3523 137.509 20.3523C132.614 20.3523 129.025 16.994 129.025 12.4213ZM141.638 12.4213C141.638 9.78261 139.829 8.06597 137.516 8.06597C135.204 8.06597 133.395 9.7901 133.395 12.4213C133.395 15.0525 135.204 16.7766 137.516 16.7766C139.829 16.7766 141.638 15.0525 141.638 12.4213Z" fill="#022954"/>
<path d="M84.7381 37.1589H78.5444L77.3957 40H73.1689L79.633 25.3748H83.7096L90.1961 40H85.8868L84.7381 37.1589ZM83.5219 34.1079L81.6375 29.4303L79.7531 34.1079H83.5219Z" fill="#D69F04"/>
<path d="M91.0068 25.3748H97.9363C102.786 25.3748 106.12 28.1934 106.12 32.6837C106.12 37.1739 102.794 39.9925 97.9363 39.9925H91.0068V25.3673V25.3748ZM97.7637 36.6942C100.256 36.6942 101.93 35.2099 101.93 32.6837C101.93 30.1574 100.256 28.6732 97.7637 28.6732H95.151V36.6942H97.7637Z" fill="#D69F04"/>
<path d="M108.815 25.3748H112.959V40H108.815V25.3748Z" fill="#D69F04"/>
<path d="M125.347 37.1589H119.153L118.004 40H113.777L120.241 25.3748H124.318L130.805 40H126.495L125.347 37.1589ZM124.13 34.1079L122.246 29.4303L120.361 34.1079H124.13Z" fill="#D69F04"/>
<path d="M138.905 36.1169H136.646V40H132.501V25.3748H139.198C143.192 25.3748 145.707 27.4438 145.707 30.7871C145.707 32.9385 144.664 34.5277 142.839 35.4048L146 40H141.563L138.905 36.1169ZM138.95 28.6357H136.646V32.916H138.95C140.67 32.916 141.526 32.1214 141.526 30.7871C141.526 29.4528 140.67 28.6357 138.95 28.6357Z" fill="#D69F04"/>
<path d="M69.0999 14.7376H72.0053V16.2819C71.2396 16.6267 70.4813 16.7841 69.6705 16.7841C67.0954 16.7841 65.3536 15 65.3536 12.4288C65.3536 9.85757 67.0954 8.07346 69.7155 8.07346C71.1795 8.07346 72.3807 8.62069 73.4243 9.77511L76.172 7.29385C74.663 5.48726 72.3507 4.50525 69.4978 4.50525C64.5428 4.50525 60.9917 7.7961 60.9917 12.4363C60.9917 17.0765 64.5503 20.3673 69.4152 20.3673C71.6375 20.3673 74.0624 19.6927 75.8267 18.4258V11.4168H69.0999V14.7526V14.7376Z" fill="#022954"/>
<path d="M68.4767 31.8141H62.4331V40H66.5773V34.985H73.0413V31.7916H68.4767V31.8141Z" fill="#D69F04"/>
<path d="M62.4331 25.3748V28.5757H66.5773H68.4767H73.9197V25.3748H62.4331Z" fill="#D69F04"/>
</g>
<defs>
<clipPath id="clip0_66_1172">
<rect width="146" height="40" fill="white"/>
</clipPath>
</defs>
</svg>
