<svg width="47" height="32" viewBox="0 0 47 32" fill="none" xmlns="http://www.w3.org/2000/svg">
<rect width="46.0444" height="31.5733" rx="2.48889" fill="black"/>
<path d="M29.1738 6.57779C34.1316 6.57783 38.1503 10.6435 38.1504 15.6588C38.1504 20.6743 34.1317 24.7399 29.1738 24.7399C26.9509 24.7399 24.9184 23.9209 23.3506 22.567C21.7828 23.9207 19.7502 24.7399 17.5273 24.7399C12.5697 24.7396 8.55078 20.6741 8.55078 15.6588C8.55089 10.6437 12.5697 6.57806 17.5273 6.57779C19.7498 6.57779 21.7829 7.39633 23.3506 8.74966C24.9183 7.39621 26.9512 6.57779 29.1738 6.57779Z" fill="#ED0006"/>
<path d="M29.1748 6.57779C34.1326 6.57783 38.1513 10.6435 38.1514 15.6588C38.1514 20.6743 34.1327 24.7399 29.1748 24.7399C26.9519 24.7399 24.9194 23.9209 23.3516 22.567C25.2807 20.9014 26.5059 18.4256 26.5059 15.6588C26.5058 12.8918 25.281 10.4153 23.3516 8.74966C24.9193 7.39621 26.9522 6.57779 29.1748 6.57779Z" fill="#F9A000"/>
<path d="M23.3496 8.74969C25.2791 10.4153 26.5038 12.8918 26.5039 15.6589C26.5039 18.4257 25.2787 20.9014 23.3496 22.5671C21.4206 20.9014 20.1953 18.4256 20.1953 15.6589C20.1954 12.8919 21.4203 10.4153 23.3496 8.74969Z" fill="#FF5E00"/>
</svg>
